<svg width="25" height="27" viewBox="0 0 25 27" fill="none" xmlns="http://www.w3.org/2000/svg">
<path d="M9.36527 24.6146V20.7522C9.36527 19.7662 10.1704 18.9669 11.1636 18.9669H14.7941C15.271 18.9669 15.7285 19.155 16.0657 19.4898C16.403 19.8246 16.5924 20.2787 16.5924 20.7522V24.6146C16.5894 25.0245 16.7513 25.4186 17.0422 25.7095C17.3331 26.0004 17.729 26.164 18.1419 26.164H20.6188C21.7756 26.167 22.8861 25.7129 23.7051 24.9019C24.5242 24.0909 24.9845 22.9897 24.9845 21.8413V10.838C24.9845 9.9103 24.5703 9.03036 23.8535 8.4352L15.4275 1.75461C13.9618 0.583273 11.8617 0.621092 10.4397 1.84443L2.20599 8.4352C1.45533 9.01282 1.00667 9.89536 0.984497 10.838V21.8301C0.984497 24.2236 2.93908 26.164 5.35019 26.164H7.77055C8.62815 26.164 9.32512 25.4771 9.33134 24.6258L9.36527 24.6146Z" fill="white"/>
</svg>
