<svg width="27" height="27" viewBox="0 0 27 27" fill="none" xmlns="http://www.w3.org/2000/svg">
<path d="M13.9845 24.5791C12.5039 24.5791 11.1046 24.2946 9.78659 23.7255C8.46853 23.1564 7.31731 22.38 6.33292 21.3963C5.34925 20.4126 4.57286 19.2618 4.00375 17.9437C3.43464 16.6257 3.15045 15.2264 3.15117 13.7458C3.15117 12.2472 3.43573 10.8432 4.00484 9.53381C4.57395 8.22442 5.35034 7.07825 6.334 6.09531C7.31767 5.11092 8.46817 4.33453 9.7855 3.76614C11.1028 3.19775 12.5025 2.9132 13.9845 2.91248C15.4831 2.91248 16.8871 3.19703 18.1965 3.76614C19.5059 4.33525 20.6521 5.11164 21.635 6.09531C22.6194 7.07898 23.3958 8.2255 23.9642 9.53489C24.5326 10.8443 24.8171 12.2479 24.8178 13.7458C24.8178 15.2264 24.5333 16.6257 23.9642 17.9437C23.3951 19.2618 22.6187 20.413 21.635 21.3974C20.6513 22.3811 19.5048 23.1574 18.1954 23.7266C16.886 24.2957 15.4824 24.5799 13.9845 24.5791ZM13.9845 22.3583C14.4539 21.7083 14.8602 21.0312 15.2033 20.3271C15.5463 19.6229 15.8262 18.8736 16.0428 18.0791H11.9262C12.1428 18.8736 12.4227 19.6229 12.7658 20.3271C13.1088 21.0312 13.5151 21.7083 13.9845 22.3583ZM11.1678 21.925C10.8428 21.3291 10.5583 20.7106 10.3142 20.0692C10.0701 19.4279 9.86712 18.7645 9.70534 18.0791H6.5095C7.03311 18.9819 7.68781 19.7673 8.47359 20.4354C9.25937 21.1034 10.1574 21.6 11.1678 21.925ZM16.8012 21.925C17.8123 21.6 18.7107 21.1034 19.4965 20.4354C20.2823 19.7673 20.9366 18.9819 21.4595 18.0791H18.2637C18.1012 18.7653 17.8982 19.429 17.6548 20.0703C17.4114 20.7116 17.1269 21.3299 16.8012 21.925ZM5.58867 15.9125H9.272C9.21784 15.5514 9.17703 15.1946 9.14959 14.8421C9.12214 14.4897 9.10878 14.1243 9.1095 13.7458C9.1095 13.3666 9.12323 13.0012 9.15067 12.6495C9.17812 12.2978 9.21856 11.941 9.272 11.5791H5.58867C5.49839 11.9403 5.4305 12.297 5.385 12.6495C5.3395 13.0019 5.31711 13.3674 5.31784 13.7458C5.31784 14.125 5.34059 14.4904 5.38609 14.8421C5.43159 15.1939 5.49911 15.5506 5.58867 15.9125ZM11.4387 15.9125H16.5303C16.5845 15.5514 16.6253 15.1946 16.6528 14.8421C16.6802 14.4897 16.6936 14.1243 16.6928 13.7458C16.6928 13.3666 16.6791 13.0012 16.6517 12.6495C16.6242 12.2978 16.5838 11.941 16.5303 11.5791H11.4387C11.3845 11.9403 11.3437 12.297 11.3163 12.6495C11.2888 13.0019 11.2754 13.3674 11.2762 13.7458C11.2762 14.125 11.2899 14.4904 11.3173 14.8421C11.3448 15.1939 11.3852 15.5506 11.4387 15.9125ZM18.697 15.9125H22.3803C22.4706 15.5514 22.5385 15.1946 22.584 14.8421C22.6295 14.4897 22.6519 14.1243 22.6512 13.7458C22.6512 13.3666 22.6284 13.0012 22.5829 12.6495C22.5374 12.2978 22.4699 11.941 22.3803 11.5791H18.697C18.7512 11.9403 18.792 12.297 18.8194 12.6495C18.8469 13.0019 18.8602 13.3674 18.8595 13.7458C18.8595 14.125 18.8458 14.4904 18.8183 14.8421C18.7909 15.1939 18.7504 15.5506 18.697 15.9125ZM18.2637 9.41248H21.4595C20.9359 8.5097 20.2816 7.72428 19.4965 7.05623C18.7114 6.38817 17.813 5.89164 16.8012 5.56664C17.1262 6.16248 17.4107 6.78106 17.6548 7.42239C17.8989 8.06373 18.1019 8.72709 18.2637 9.41248ZM11.9262 9.41248H16.0428C15.8262 8.61803 15.5463 7.86873 15.2033 7.16456C14.8602 6.46039 14.4539 5.78331 13.9845 5.13331C13.5151 5.78331 13.1088 6.46039 12.7658 7.16456C12.4227 7.86873 12.1428 8.61803 11.9262 9.41248ZM6.5095 9.41248H9.70534C9.86784 8.72636 10.0711 8.06264 10.3153 7.42131C10.5594 6.77998 10.8436 6.16175 11.1678 5.56664C10.1567 5.89164 9.25828 6.38817 8.4725 7.05623C7.68673 7.72428 7.03239 8.5097 6.5095 9.41248Z" fill="white"/>
</svg>
