<svg width="25" height="25" viewBox="0 0 25 25" fill="none" xmlns="http://www.w3.org/2000/svg">
<g id="Group 133">
<g id="Iconly/Bold/Logout">
<g id="Logout">
<path id="Vector" d="M11.7374 0.916504C14.6046 0.916504 16.943 3.21485 16.943 6.04446V11.5767H9.8925C9.38721 11.5767 8.98768 11.9693 8.98768 12.466C8.98768 12.951 9.38721 13.3553 9.8925 13.3553H16.943V18.8759C16.943 21.7055 14.6046 24.0154 11.7139 24.0154H5.9912C3.11223 24.0154 0.773804 21.7171 0.773804 18.8875V6.05601C0.773804 3.21485 3.12398 0.916504 6.00295 0.916504H11.7374ZM19.8768 8.48163C20.2233 8.1236 20.7892 8.1236 21.1357 8.47008L24.5082 11.831C24.6814 12.0042 24.7738 12.2237 24.7738 12.4662C24.7738 12.6972 24.6814 12.9282 24.5082 13.0899L21.1357 16.4508C20.9625 16.624 20.7315 16.7164 20.5121 16.7164C20.2811 16.7164 20.0501 16.624 19.8768 16.4508C19.5303 16.1043 19.5303 15.5383 19.8768 15.1919L21.7247 13.3555H16.9433V11.5769H21.7247L19.8768 9.74052C19.5303 9.39404 19.5303 8.82811 19.8768 8.48163Z" fill="white"/>
</g>
</g>
</g>
</svg>
