<svg width="17" height="28" viewBox="0 0 17 28" fill="none" xmlns="http://www.w3.org/2000/svg">
<path d="M8.5 27.6462C6.14444 27.6462 4.22222 27.2739 2.73333 26.5295C1.24444 25.785 0.5 24.8239 0.5 23.6462C0.5 22.8684 0.822222 22.1906 1.46667 21.6128C2.11111 21.035 3 20.5795 4.13333 20.2462L4.9 22.7795C4.52222 22.8906 4.17778 23.0295 3.86667 23.1962C3.55556 23.3628 3.34444 23.5128 3.23333 23.6462C3.52222 24.0017 4.18889 24.3128 5.23333 24.5795C6.27778 24.8462 7.36667 24.9795 8.5 24.9795C9.63333 24.9795 10.7278 24.8462 11.7833 24.5795C12.8389 24.3128 13.5111 24.0017 13.8 23.6462C13.6889 23.5128 13.4778 23.3628 13.1667 23.1962C12.8556 23.0295 12.5111 22.8906 12.1333 22.7795L12.9 20.2462C14.0333 20.5795 14.9167 21.035 15.55 21.6128C16.1833 22.1906 16.5 22.8684 16.5 23.6462C16.5 24.8239 15.7556 25.785 14.2667 26.5295C12.7778 27.2739 10.8556 27.6462 8.5 27.6462ZM8.5 23.6462C8.25556 23.6462 8.03333 23.5739 7.83333 23.4295C7.63333 23.285 7.48889 23.0906 7.4 22.8462C6.88889 21.2684 6.24444 19.9462 5.46667 18.8795C4.68889 17.8128 3.93333 16.7906 3.2 15.8128C2.48889 14.835 1.87222 13.8239 1.35 12.7795C0.827778 11.735 0.566667 10.4462 0.566667 8.91283C0.566667 6.6906 1.33333 4.81283 2.86667 3.27949C4.4 1.74616 6.27778 0.979492 8.5 0.979492C10.7222 0.979492 12.6 1.74616 14.1333 3.27949C15.6667 4.81283 16.4333 6.6906 16.4333 8.91283C16.4333 10.4462 16.1778 11.735 15.6667 12.7795C15.1556 13.8239 14.5333 14.835 13.8 15.8128C13.0889 16.7906 12.3389 17.8128 11.55 18.8795C10.7611 19.9462 10.1111 21.2684 9.6 22.8462C9.51111 23.0906 9.36667 23.285 9.16667 23.4295C8.96667 23.5739 8.74444 23.6462 8.5 23.6462ZM8.5 11.7462C9.27778 11.7462 9.94444 11.4684 10.5 10.9128C11.0556 10.3573 11.3333 9.6906 11.3333 8.91283C11.3333 8.13505 11.0556 7.46838 10.5 6.91283C9.94444 6.35727 9.27778 6.07949 8.5 6.07949C7.72222 6.07949 7.05556 6.35727 6.5 6.91283C5.94444 7.46838 5.66667 8.13505 5.66667 8.91283C5.66667 9.6906 5.94444 10.3573 6.5 10.9128C7.05556 11.4684 7.72222 11.7462 8.5 11.7462Z" fill="white"/>
</svg>
