<svg width="20" height="24" viewBox="0 0 20 24" fill="none" xmlns="http://www.w3.org/2000/svg">
<g id="Notification">
<path id="Vector" d="M7.60374 20.5034C8.19188 20.379 11.7756 20.379 12.3638 20.5034C12.8665 20.6195 13.4102 20.8909 13.4102 21.4833C13.381 22.0473 13.0501 22.5474 12.5929 22.8649C12.0001 23.327 11.3044 23.6197 10.5771 23.7252C10.1749 23.7773 9.77972 23.7785 9.39153 23.7252C8.66308 23.6197 7.96738 23.327 7.37574 22.8637C6.91739 22.5474 6.5865 22.0473 6.55727 21.4833C6.55727 20.8909 7.10097 20.6195 7.60374 20.5034ZM10.0532 0.235291C12.5004 0.235291 15.0003 1.39649 16.4852 3.32313C17.4487 4.56372 17.8907 5.80312 17.8907 7.72976V8.23098C17.8907 9.70854 18.2812 10.5794 19.1406 11.583C19.7919 12.3224 20 13.2715 20 14.3012C20 15.3297 19.6621 16.306 18.9851 17.0987C18.0988 18.049 16.8489 18.6557 15.5732 18.7612C13.7246 18.9187 11.8749 19.0515 10.0006 19.0515C8.12511 19.0515 6.27653 18.9721 4.42795 18.7612C3.15113 18.6557 1.9012 18.049 1.01608 17.0987C0.339082 16.306 0 15.3297 0 14.3012C0 13.2715 0.209296 12.3224 0.859398 11.583C1.74569 10.5794 2.11049 9.70854 2.11049 8.23098V7.72976C2.11049 5.75099 2.60392 4.45708 3.62 3.19042C5.13066 1.34317 7.55218 0.235291 9.94797 0.235291H10.0532Z" fill="#0CBA72"/>
</g>
</svg>
