<svg width="25" height="24" viewBox="0 0 25 24" fill="none" xmlns="http://www.w3.org/2000/svg">
<path d="M12.3225 20.6641C12.9106 20.5397 16.4944 20.5397 17.0825 20.6641C17.5853 20.7803 18.129 21.0516 18.129 21.644C18.0998 22.2081 17.7689 22.7081 17.3117 23.0256C16.7189 23.4877 16.0232 23.7804 15.2959 23.8859C14.8937 23.938 14.4985 23.9392 14.1103 23.8859C13.3818 23.7804 12.6861 23.4877 12.0945 23.0244C11.6361 22.7081 11.3052 22.2081 11.276 21.644C11.276 21.0516 11.8197 20.7803 12.3225 20.6641ZM14.772 0.395996C17.2192 0.395996 19.719 1.5572 21.204 3.48384C22.1675 4.72443 22.6094 5.96383 22.6094 7.89047V8.39168C22.6094 9.86925 23 10.7401 23.8594 11.7438C24.5106 12.4831 24.7188 13.4322 24.7188 14.4619C24.7188 15.4904 24.3808 16.4668 23.7038 17.2595C22.8176 18.2097 21.5676 18.8164 20.292 18.9219C18.4434 19.0795 16.5936 19.2122 14.7193 19.2122C12.8439 19.2122 10.9953 19.1328 9.1467 18.9219C7.86988 18.8164 6.61995 18.2097 5.73483 17.2595C5.05783 16.4668 4.71875 15.4904 4.71875 14.4619C4.71875 13.4322 4.92805 12.4831 5.57815 11.7438C6.46444 10.7401 6.82924 9.86925 6.82924 8.39168V7.89047C6.82924 5.91169 7.32267 4.61778 8.33875 3.35113C9.84941 1.50387 12.2709 0.395996 14.6667 0.395996H14.772Z" fill="white"/>
<rect x="0.71875" y="1.57251" width="10.5882" height="10.5882" rx="5.12821" fill="#E2243A"/>
</svg>
