<svg width="25" height="25" viewBox="0 0 25 25" fill="none" xmlns="http://www.w3.org/2000/svg">
<path d="M22.7232 17.3508C22.5561 18.6212 21.9322 19.7872 20.9682 20.6312C20.0041 21.4752 18.7658 21.9394 17.4845 21.9371C10.0407 21.9371 3.98449 15.8808 3.98449 8.43707C3.98219 7.15578 4.44638 5.91746 5.29037 4.95341C6.13435 3.98935 7.3004 3.36548 8.57074 3.19832C8.89198 3.15909 9.21729 3.22481 9.4981 3.38566C9.77892 3.54652 10.0002 3.79388 10.1289 4.09082L12.1089 8.51113V8.52238C12.2074 8.74968 12.2481 8.99784 12.2273 9.2447C12.2065 9.49156 12.1249 9.72943 11.9898 9.93707C11.9729 9.96238 11.9551 9.98582 11.9364 10.0093L9.98449 12.323C10.6867 13.7499 12.1792 15.2293 13.6248 15.9333L15.9067 13.9918C15.9291 13.9729 15.9526 13.9554 15.977 13.9393C16.1845 13.8009 16.4231 13.7164 16.6715 13.6935C16.9198 13.6706 17.1699 13.7099 17.3992 13.808L17.4114 13.8136L21.8279 15.7927C22.1254 15.9209 22.3734 16.142 22.5347 16.4228C22.6961 16.7037 22.7623 17.0293 22.7232 17.3508Z" fill="white"/>
</svg>
