<svg width="25" height="26" viewBox="0 0 25 26" fill="none" xmlns="http://www.w3.org/2000/svg">
<path d="M13.6798 0.655273C14.635 0.655273 15.4999 1.1858 15.9776 1.96896C16.2099 2.34791 16.3648 2.81527 16.3261 3.3079C16.3003 3.68685 16.4165 4.0658 16.623 4.41948C17.2814 5.49317 18.7401 5.89738 19.8761 5.29106C21.154 4.55843 22.7677 5.00054 23.5035 6.25106L24.3684 7.74159C25.1171 8.99212 24.704 10.5963 23.4131 11.3163C22.3159 11.9605 21.9286 13.3879 22.5869 14.4742C22.7935 14.8153 23.0258 15.1058 23.3873 15.2826C23.8391 15.5226 24.1876 15.9016 24.4329 16.2805C24.9105 17.0637 24.8718 18.0237 24.4071 18.87L23.5035 20.3858C23.0258 21.1942 22.1351 21.6995 21.2186 21.6995C20.7668 21.6995 20.2633 21.5732 19.8502 21.3205C19.5146 21.1058 19.1273 21.03 18.7143 21.03C17.4363 21.03 16.3648 22.0784 16.3261 23.329C16.3261 24.7816 15.1385 25.9184 13.654 25.9184H11.8983C10.4009 25.9184 9.21328 24.7816 9.21328 23.329C9.18746 22.0784 8.11602 21.03 6.83804 21.03C6.41204 21.03 6.02477 21.1058 5.70205 21.3205C5.28897 21.5732 4.77261 21.6995 4.3337 21.6995C3.40426 21.6995 2.51354 21.1942 2.03591 20.3858L1.1452 18.87C0.667567 18.049 0.641749 17.0637 1.11938 16.2805C1.32592 15.9016 1.71319 15.5226 2.15209 15.2826C2.51354 15.1058 2.74591 14.8153 2.96536 14.4742C3.6108 13.3879 3.22354 11.9605 2.12628 11.3163C0.848292 10.5963 0.435206 8.99212 1.17101 7.74159L2.03591 6.25106C2.78463 5.00054 4.38534 4.55843 5.67623 5.29106C6.79931 5.89738 8.25802 5.49317 8.91638 4.41948C9.12292 4.0658 9.2391 3.68685 9.21328 3.3079C9.18746 2.81527 9.32946 2.34791 9.57473 1.96896C10.0524 1.1858 10.9173 0.680537 11.8596 0.655273H13.6798ZM12.7891 9.72475C10.7624 9.72475 9.12292 11.3163 9.12292 13.2995C9.12292 15.2826 10.7624 16.8616 12.7891 16.8616C14.8158 16.8616 16.4165 15.2826 16.4165 13.2995C16.4165 11.3163 14.8158 9.72475 12.7891 9.72475Z" fill="white"/>
</svg>
